<?xml version="1.0" encoding="utf-8"?>
<!-- Generator: Adobe Illustrator 16.0.0, SVG Export Plug-In . SVG Version: 6.00 Build 0)  -->
<!DOCTYPE svg PUBLIC "-//W3C//DTD SVG 1.1//EN" "http://www.w3.org/Graphics/SVG/1.1/DTD/svg11.dtd">
<svg version="1.1" id="Layer_1" xmlns="http://www.w3.org/2000/svg" xmlns:xlink="http://www.w3.org/1999/xlink" x="0px" y="0px"
	 width="40px" height="41px" viewBox="0 0 40 41" enable-background="new 0 0 40 41" xml:space="preserve">
<g>
	<g>
		<path fill="#6E6E6E" d="M20.261,26.854c1.375,0,2.566,0.521,3.574,1.566c1.008,1.044,1.512,2.348,1.512,3.91
			c0,1.609-0.508,2.945-1.523,4.008s-2.245,1.594-3.688,1.594c-1.458,0-2.684-0.519-3.676-1.555
			c-0.992-1.037-1.488-2.378-1.488-4.023c0-1.683,0.573-3.055,1.719-4.117C17.685,27.314,18.875,26.854,20.261,26.854z
			 M20.112,27.424c-0.948,0-1.708,0.352-2.281,1.055c-0.714,0.875-1.07,2.156-1.07,3.844c0,1.729,0.37,3.06,1.109,3.992
			c0.567,0.708,1.317,1.063,2.25,1.063c0.995,0,1.816-0.389,2.465-1.164c0.648-0.776,0.973-2,0.973-3.672
			c0-1.813-0.357-3.164-1.07-4.055C21.914,27.777,21.123,27.424,20.112,27.424z"/>
	</g>
	
		<line fill="none" stroke="#6E6E6E" stroke-width="1.0667" stroke-linecap="round" stroke-miterlimit="10" x1="10.184" y1="5" x2="30.191" y2="5.001"/>
	
		<line fill="none" stroke="#6E6E6E" stroke-width="1.0667" stroke-linecap="round" stroke-miterlimit="10" x1="30.191" y1="5.001" x2="36.373" y2="24.03"/>
	
		<line fill="none" stroke="#6E6E6E" stroke-width="1.0667" stroke-linecap="round" stroke-miterlimit="10" x1="28.14" y1="8.185" x2="32.865" y2="22.729"/>
	
		<line fill="none" stroke="#6E6E6E" stroke-width="1.0667" stroke-linecap="round" stroke-miterlimit="10" x1="36.373" y1="24.03" x2="27.288" y2="30.63"/>
	
		<line fill="none" stroke="#6E6E6E" stroke-width="1.0667" stroke-linecap="round" stroke-miterlimit="10" x1="13.086" y1="30.63" x2="4" y2="24.028"/>
	
		<line fill="none" stroke="#6E6E6E" stroke-width="1.0667" stroke-linecap="round" stroke-miterlimit="10" x1="4" y1="24.028" x2="10.184" y2="5"/>
	
		<line fill="none" stroke="#6E6E6E" stroke-width="1.0667" stroke-linecap="round" stroke-miterlimit="10" x1="7.53" y1="22.658" x2="12.257" y2="8.115"/>
</g>
<g>
</g>
<g>
</g>
<g>
</g>
<g>
</g>
<g>
</g>
<g>
</g>
</svg>
